<?xml version="1.0" encoding="utf-8"?>
<!-- Generator: Adobe Illustrator 21.1.0, SVG Export Plug-In . SVG Version: 6.00 Build 0)  -->
<svg version="1.1" id="Layer_1" xmlns="http://www.w3.org/2000/svg" xmlns:xlink="http://www.w3.org/1999/xlink" x="0px" y="0px"
	 viewBox="0 0 44 38.4" style="enable-background:new 0 0 44 38.4;" xml:space="preserve">
<path d="M5,38.4c-0.9,0-1.7-0.1-2.5-0.6c-2.4-1.4-3.2-4.5-1.8-6.9l17-28.5l0,0c0.4-0.7,1-1.3,1.7-1.7c1.1-0.7,2.5-0.9,3.8-0.6
	s2.4,1.1,3.1,2.3l17,28.4c0.4,0.8,0.7,1.6,0.7,2.5c0,1.3-0.5,2.6-1.4,3.6s-2.2,1.5-3.5,1.5H5L5,38.4z M19.4,3.6L2.4,32
	c-0.8,1.4-0.3,3.3,1.1,4.1c0.4,0.3,1,0.4,1.5,0.4h34c0.8,0,1.5-0.3,2.1-0.9c0.6-0.6,0.9-1.3,0.9-2.1c0-0.5-0.1-1-0.4-1.5l-17-28.4
	c-0.4-0.7-1.1-1.2-1.9-1.4C22,2,21.1,2.1,20.5,2.6C20,2.8,19.7,3.2,19.4,3.6z M24,22.3v-8c0-1.1-0.9-2-2-2s-2,0.9-2,2v8
	c0,1.1,0.9,2,2,2S24,23.4,24,22.3z M23.4,31.7c0.4-0.4,0.6-0.9,0.6-1.4c0-0.3-0.1-0.5-0.2-0.8c-0.1-0.2-0.2-0.5-0.4-0.7
	c-0.2-0.2-0.4-0.3-0.7-0.4c-0.5-0.2-1-0.2-1.5,0c-0.3,0.1-0.5,0.2-0.7,0.4c-0.2,0.2-0.3,0.4-0.4,0.7c-0.1,0.2-0.2,0.5-0.2,0.8
	c0,0.5,0.2,1,0.6,1.4c0.2,0.2,0.4,0.3,0.7,0.4c0.2,0.1,0.5,0.2,0.8,0.2C22.6,32.3,23.1,32.1,23.4,31.7z"/>
</svg>
