<?xml version="1.0" encoding="utf-8"?>
<!-- Generator: Adobe Illustrator 21.1.0, SVG Export Plug-In . SVG Version: 6.00 Build 0)  -->
<svg version="1.1" id="Layer_1" xmlns="http://www.w3.org/2000/svg" xmlns:xlink="http://www.w3.org/1999/xlink" x="0px" y="0px"
	 viewBox="0 0 44.1 25.4" style="enable-background:new 0 0 44.1 25.4;" xml:space="preserve">
<path d="M1,11.7h39.7l-10-10c-0.4-0.4-0.4-1,0-1.4s1-0.4,1.4,0L43.8,12c0.4,0.4,0.4,1,0,1.4L32,25.1c-0.2,0.2-0.4,0.3-0.7,0.3
	c-0.2,0-0.5-0.1-0.7-0.3c-0.4-0.4-0.4-1,0-1.4l10-10H1c-0.5,0-1-0.4-1-1C0,12.2,0.4,11.7,1,11.7z"/>
</svg>
