<?xml version="1.0" encoding="utf-8"?>
<!-- Generator: Adobe Illustrator 21.1.0, SVG Export Plug-In . SVG Version: 6.00 Build 0)  -->
<svg version="1.1" id="Layer_1" xmlns="http://www.w3.org/2000/svg" xmlns:xlink="http://www.w3.org/1999/xlink" x="0px" y="0px"
	 viewBox="0 0 30.7 43.9" style="enable-background:new 0 0 30.7 43.9;" xml:space="preserve">
<path d="M30.2,3c1.1-1.7,0.1-3-2.2-3h-6.9l-3.3,5.2l-5.6,8.7c-1.1,1.7-0.1,3,2.2,3h2.7c1.1,0,2.3-0.3,3.4-0.8
	c0.4,0.3,0.7,0.7,0.8,1.2l-0.3,2c-1.7-0.8-3.6-1.3-5.7-1.3c-2,0-3.9,0.5-5.7,1.3l-0.3-2c0-0.5,0.3-0.9,0.7-1.1
	c0.6,0.3,1.1,0.5,1.7,0.6c-1.2-0.5-1.6-1.5-0.8-2.8l3.7-5.7l-1.9-3L9.4,0.1H2.6c-2.3,0-3.3,1.4-2.2,3l7,10.9
	c0.1,0.2,0.3,0.4,0.4,0.6c-0.7,0.7-1.1,1.7-1.1,2.8l0.5,3.3c-3,2.4-5,6.1-5,10.2c0,7.2,5.8,13,13,13s13-5.8,13-13
	c0-4.2-1.9-7.9-5-10.2l0.5-3.3c0-1.1-0.4-2.1-1.2-2.9c0.2-0.2,0.4-0.4,0.5-0.6L30.2,3z M25.3,31c0,2.7-1,5.2-2.9,7.1
	C20.5,40,18,41,15.3,41s-5.2-1-7.1-2.9S5.3,33.7,5.3,31s1-5.2,2.9-7.1s4.4-2.9,7.1-2.9s5.2,1,7.1,2.9C24.2,25.9,25.3,28.4,25.3,31z
	 M17.3,28.2l-2-4.1l-2,4.1l-4.5,0.7l3.3,3.2l-0.8,4.4l4-2.1l4,2.1L18.5,32l3.3-3.2L17.3,28.2z"/>
</svg>
