<?xml version="1.0" encoding="utf-8"?>
<!-- Generator: Adobe Illustrator 21.1.0, SVG Export Plug-In . SVG Version: 6.00 Build 0)  -->
<svg version="1.1" id="Layer_1" xmlns="http://www.w3.org/2000/svg" xmlns:xlink="http://www.w3.org/1999/xlink" x="0px" y="0px"
	 viewBox="0 0 38.5 38.5" style="enable-background:new 0 0 38.5 38.5;" xml:space="preserve">
<path d="M21.4,19.3L38,2.5c0.6-0.6,0.6-1.5,0-2.1s-1.5-0.6-2.1,0L19.3,17.1L2.5,0.4C1.9-0.1,1-0.1,0.4,0.4s-0.5,1.5,0,2.1l16.7,16.7
	L0.4,36c-0.6,0.6-0.6,1.5,0,2.1c0.3,0.3,0.7,0.4,1,0.4c0.4,0,0.8-0.1,1-0.4l16.7-16.7L36,38c0.3,0.3,0.7,0.4,1,0.4
	c0.4,0,0.8-0.1,1-0.4c0.6-0.6,0.6-1.5,0-2.1L21.4,19.3z"/>
</svg>
