<?xml version="1.0" encoding="utf-8"?>
<!-- Generator: Adobe Illustrator 21.1.0, SVG Export Plug-In . SVG Version: 6.00 Build 0)  -->
<svg version="1.1" id="Layer_1" xmlns="http://www.w3.org/2000/svg" xmlns:xlink="http://www.w3.org/1999/xlink" x="0px" y="0px"
	 viewBox="0 0 39 43.8" style="enable-background:new 0 0 39 43.8;" xml:space="preserve">
<path d="M25.1,15.7c-2.4,0-4.4,1.2-5.6,3c-1.2-1.8-3.2-3-5.6-3c-3.7,0-6.7,3-6.7,6.7c0,6.6,12.3,13.4,12.3,13.4s12.3-6.7,12.3-13.4
	C31.8,18.7,28.8,15.7,25.1,15.7z M33.4,10.6L34.7,9l0,0l1.4,1.2l0.1,0.1c0.1,0,0.1,0,0.1-0.1L37.5,9c0.1-0.1,0.1-0.2,0-0.3l-5.5-5
	l-0.1-0.1c-0.1,0-0.1,0-0.1,0.1L30.6,5c-0.1,0.1-0.1,0.2,0,0.3L32,6.5l0,0l-1.5,1.7c-2.7-1.8-5.8-3-9.1-3.3V2.1l0,0h1.9
	c0.1,0,0.2-0.1,0.2-0.2V0.2c0-0.1-0.1-0.2-0.2-0.2h-7.5c-0.1,0-0.2,0.1-0.2,0.2v1.7c0,0.1,0.1,0.2,0.2,0.2h1.9l0,0v2.8
	c-4.5,0.4-8.7,2.4-12,5.6C2,14.2,0,19.1,0,24.3s2,10.1,5.7,13.8c3.5,3.5,8,5.5,12.8,5.7l0,0c0.1,0,0.3,0,0.4,0c0,0,0,0,0.1,0
	c0.2,0,0.3,0,0.5,0s0.3,0,0.5,0c0,0,0,0,0.1,0c0.1,0,0.3,0,0.4,0l0,0c4.8-0.2,9.4-2.2,12.8-5.7C37,34.4,39,29.5,39,24.3
	C39.1,19.2,37,14.3,33.4,10.6z M19.6,41.4c-9.4,0-17-7.6-17-17s7.6-17,17-17s17,7.6,17,17S29,41.4,19.6,41.4z"/>
</svg>
