<?xml version="1.0" encoding="utf-8"?>
<!-- Generator: Adobe Illustrator 15.1.0, SVG Export Plug-In  -->
<!DOCTYPE svg PUBLIC "-//W3C//DTD SVG 1.1//EN" "http://www.w3.org/Graphics/SVG/1.1/DTD/svg11.dtd" [
	<!ENTITY ns_flows "http://ns.adobe.com/Flows/1.0/">
]>
<svg version="1.1"
	 xmlns="http://www.w3.org/2000/svg" xmlns:xlink="http://www.w3.org/1999/xlink" xmlns:a="http://ns.adobe.com/AdobeSVGViewerExtensions/3.0/"
	 x="0px" y="0px" width="90px" height="90px" viewBox="-5.755 -0.95 90 90" enable-background="new -5.755 -0.95 90 90"
	 xml:space="preserve">
<defs>
</defs>
<path fill="#00C0D4" d="M50.463,31.825c-4.712,0-8.863,2.356-11.221,6.061c-2.358-3.704-6.509-6.061-11.224-6.061
	c-7.405,0-13.466,6.061-13.466,13.469c0,13.355,24.687,26.932,24.687,26.932s24.694-13.464,24.694-26.932
	C63.934,37.886,57.874,31.825,50.463,31.825z M67.028,21.146l2.736-3.13c0.012-0.016,0.027-0.037,0.039-0.054l2.787,2.501
	c0.072,0.067,0.166,0.101,0.262,0.101c0.109,0,0.213-0.045,0.293-0.129l2.236-2.489c0.143-0.163,0.133-0.409-0.031-0.556
	L64.221,7.405c-0.074-0.067-0.168-0.101-0.264-0.101c-0.105,0-0.213,0.045-0.293,0.128l-2.234,2.49
	c-0.146,0.163-0.131,0.409,0.031,0.556l2.789,2.503c-0.021,0.011-0.037,0.025-0.055,0.039l-2.924,3.353
	c-5.43-3.7-11.686-5.959-18.291-6.582V4.198c0-0.022-0.002-0.045-0.006-0.067h3.745c0.212,0,0.394-0.176,0.394-0.393V0.396
	C47.114,0.179,46.936,0,46.72,0H31.768c-0.219,0-0.395,0.177-0.395,0.396v3.343c0,0.219,0.176,0.393,0.395,0.393h3.744
	c-0.005,0.022-0.005,0.045-0.005,0.067v5.595c-9.072,0.851-17.488,4.792-24.013,11.315C4.083,28.521,0,38.38,0,48.858
	c0,10.48,4.081,20.337,11.494,27.749c6.932,6.925,15.989,10.945,25.705,11.438c0.014,0,0.024,0.004,0.042,0.004
	c0.283,0.018,0.57,0.022,0.862,0.033c0.047,0,0.092,0.006,0.143,0.006c0.334,0.005,0.666,0.011,1,0.011c0.333,0,0.666-0.006,1-0.011
	c0.05,0,0.099-0.006,0.146-0.006c0.29-0.011,0.573-0.016,0.86-0.033c0.02,0,0.031-0.004,0.042-0.004
	c9.714-0.493,18.772-4.513,25.702-11.438c7.412-7.412,11.492-17.269,11.492-27.749C78.483,38.394,74.415,28.557,67.028,21.146z
	 M63.049,72.663c-2.961,2.959-6.363,5.306-10.127,6.979c-3.756,1.669-7.762,2.626-11.918,2.834
	c-0.023,0.006-0.045,0.006-0.066,0.006c-0.202,0.005-0.43,0.016-0.71,0.026c-0.044,0-0.092,0-0.137,0.005h-0.006
	c-0.285,0.006-0.568,0.015-0.843,0.015s-0.556-0.009-0.842-0.015h-0.007c-0.044-0.005-0.089-0.005-0.14-0.005
	c-0.272-0.011-0.502-0.021-0.708-0.026c-0.021,0-0.045,0-0.064-0.006c-4.15-0.208-8.161-1.165-11.914-2.834
	c-3.764-1.674-7.172-4.021-10.13-6.979C9.08,66.308,5.579,57.852,5.579,48.858c0-8.993,3.501-17.445,9.858-23.805
	c2.784-2.783,5.976-5.032,9.483-6.679c3.491-1.644,7.227-2.663,11.107-3.027l3.215-0.303l3.217,0.303
	c5.617,0.527,11.029,2.475,15.674,5.638l2.66,1.81l2.281,2.293c6.34,6.354,9.83,14.796,9.83,23.771
	C72.911,57.852,69.409,66.308,63.049,72.663z"/>
</svg>
