<?xml version="1.0" encoding="utf-8"?>
<!-- Generator: Adobe Illustrator 21.1.0, SVG Export Plug-In . SVG Version: 6.00 Build 0)  -->
<svg version="1.1" id="Layer_1" xmlns="http://www.w3.org/2000/svg" xmlns:xlink="http://www.w3.org/1999/xlink" x="0px" y="0px"
	 viewBox="0 0 42 38.5" style="enable-background:new 0 0 42 38.5;" xml:space="preserve">
<path d="M28.9,29.6c0.4,0.4,0.4,0.9,0,1.3l-7.3,7.3c-0.2,0.2-0.4,0.3-0.6,0.3s-0.5-0.1-0.6-0.3l-7.3-7.3c-0.4-0.4-0.4-0.9,0-1.3
	s0.9-0.4,1.3,0l5.7,5.7V14.7c0-0.5,0.4-0.9,0.9-0.9s0.9,0.4,0.9,0.9v20.6l5.7-5.7C28,29.2,28.6,29.2,28.9,29.6z M40.1,15.2
	c-1.9-2.7-4.9-4.3-8.2-4.3l0,0h-1.6C27.9,3.1,19.7-1.6,11.7,0.5C3.4,2.6-1.6,11.1,0.5,19.3c0.6,2.4,1.8,4.6,3.4,6.4
	c0.3,0.4,0.9,0.4,1.3,0.1c0.4-0.3,0.4-0.9,0.1-1.3c-1.4-1.6-2.5-3.6-3-5.7c-0.9-3.5-0.4-7.2,1.5-10.3s4.8-5.4,8.4-6.3
	c7.3-1.9,14.7,2.5,16.6,9.8c0.1,0.4,0.5,0.7,0.9,0.7H32l0,0c2.7,0,5.2,1.3,6.7,3.5c1.3,1.8,1.7,4,1.4,6.1c-0.4,2.2-1.6,4-3.4,5.3
	c-0.4,0.3-0.5,0.9-0.2,1.3c0.2,0.3,0.5,0.4,0.7,0.4s0.4-0.1,0.5-0.2c2.2-1.5,3.6-3.8,4.1-6.5C42.3,20,41.7,17.4,40.1,15.2z"/>
</svg>
