<?xml version="1.0" encoding="utf-8"?>
<!-- Generator: Adobe Illustrator 21.1.0, SVG Export Plug-In . SVG Version: 6.00 Build 0)  -->
<svg version="1.1" id="Layer_1" xmlns="http://www.w3.org/2000/svg" xmlns:xlink="http://www.w3.org/1999/xlink" x="0px" y="0px"
	 viewBox="0 0 38.4 38.4" style="enable-background:new 0 0 38.4 38.4;" xml:space="preserve">
<path d="M30.2,38.4H4.6c-2.5,0-4.6-2-4.6-4.6V8.2c0-2.5,2.1-4.6,4.6-4.6h9.8c0.5,0,0.9,0.4,0.9,0.9s-0.4,0.9-0.9,0.9H4.6
	c-1.5,0-2.7,1.2-2.7,2.7v25.6c0,1.5,1.2,2.7,2.7,2.7h25.6c1.5,0,2.7-1.2,2.7-2.7v-9.8c0-0.5,0.4-0.9,0.9-0.9s0.9,0.4,0.9,0.9v9.8
	C34.7,36.4,32.7,38.4,30.2,38.4z M19.8,27.2L38.1,8.9c0.4-0.4,0.4-0.9,0-1.3l-7.3-7.3c-0.4-0.4-0.9-0.4-1.3,0L11.2,18.6
	c-0.2,0.2-0.3,0.4-0.3,0.6v7.3c0,0.5,0.4,0.9,0.9,0.9h7.4C19.4,27.4,19.7,27.3,19.8,27.2z M12.8,19.6L30.2,2.2l6,6L18.8,25.6h-6
	V19.6z"/>
</svg>
