<?xml version="1.0" encoding="utf-8"?>
<!-- Generator: Adobe Illustrator 21.1.0, SVG Export Plug-In . SVG Version: 6.00 Build 0)  -->
<svg version="1.1" id="Layer_1" xmlns="http://www.w3.org/2000/svg" xmlns:xlink="http://www.w3.org/1999/xlink" x="0px" y="0px"
	 viewBox="0 0 38.6 38.4" style="enable-background:new 0 0 38.6 38.4;" xml:space="preserve">
<path d="M30.2,38.4H5.6c-3.1,0-5.6-2.5-5.6-5.6V8.2c0-3.1,2.5-5.6,5.6-5.6H19c0.6,0,1.1,0.5,1.1,1.1S19.6,4.8,19,4.8H5.6
	c-1.8,0-3.4,1.5-3.4,3.4v24.6c0,1.8,1.5,3.4,3.4,3.4h24.6c1.8,0,3.4-1.5,3.4-3.4V19.4c0-0.6,0.5-1.1,1.1-1.1s1.1,0.5,1.1,1.1v13.4
	C35.8,35.9,33.3,38.4,30.2,38.4z M37.5,0H24.1C23.5,0,23,0.5,23,1.1s0.5,1.1,1.1,1.1h10.7L11.9,25.1c-0.4,0.4-0.4,1.1,0,1.6
	c0.2,0.2,0.5,0.3,0.8,0.3c0.3,0,0.6-0.1,0.8-0.3L36.4,3.8v10.8c0,0.6,0.5,1.1,1.1,1.1s1.1-0.5,1.1-1.1V1.1C38.6,0.5,38.1,0,37.5,0z"
	/>
</svg>
