<?xml version="1.0" encoding="utf-8"?>
<!-- Generator: Adobe Illustrator 21.1.0, SVG Export Plug-In . SVG Version: 6.00 Build 0)  -->
<svg version="1.1" id="Layer_1" xmlns="http://www.w3.org/2000/svg" xmlns:xlink="http://www.w3.org/1999/xlink" x="0px" y="0px"
	 viewBox="0 0 43.9 43.9" style="enable-background:new 0 0 43.9 43.9;" xml:space="preserve">
<path d="M41.5,0H2.4C1.1,0,0,1.1,0,2.4v39.1c0,1.3,1.1,2.4,2.4,2.4h21v-17h-5.7v-6.6h5.7v-4.9c0-5.7,3.5-8.8,8.5-8.8
	c2.4,0,4.5,0.2,5.1,0.3v5.9h-3.5c-2.7,0-3.3,1.3-3.3,3.2v4.2h6.6L36,26.9h-5.7v17h11.2c1.3,0,2.4-1.1,2.4-2.4V2.4
	C43.9,1.1,42.8,0,41.5,0"/>
</svg>
