<?xml version="1.0" encoding="utf-8"?>
<!-- Generator: Adobe Illustrator 21.1.0, SVG Export Plug-In . SVG Version: 6.00 Build 0)  -->
<svg version="1.1" id="Layer_1" xmlns="http://www.w3.org/2000/svg" xmlns:xlink="http://www.w3.org/1999/xlink" x="0px" y="0px"
	 viewBox="0 0 44 28" style="enable-background:new 0 0 44 28;" xml:space="preserve">
<path d="M14,12v4.8h7.9c-0.3,2.1-2.4,6-7.9,6c-4.8,0-8.7-4-8.7-8.8S9.2,5.2,14,5.2c2.7,0,4.5,1.2,5.6,2.2l3.8-3.7
	C20.9,1.4,17.8,0,14,0C6.3,0,0,6.3,0,14s6.3,14,14,14c8.1,0,13.4-5.7,13.4-13.7c0-0.9-0.1-1.6-0.2-2.3C27.2,12,14,12,14,12z M44,12
	h-4V8h-4v4h-4v4h4v4h4v-4h4"/>
</svg>
