<?xml version="1.0" encoding="utf-8"?>
<!-- Generator: Adobe Illustrator 21.1.0, SVG Export Plug-In . SVG Version: 6.00 Build 0)  -->
<svg version="1.1" id="Layer_1" xmlns="http://www.w3.org/2000/svg" xmlns:xlink="http://www.w3.org/1999/xlink" x="0px" y="0px"
	 viewBox="0 0 44 32.6" style="enable-background:new 0 0 44 32.6;" xml:space="preserve">
<style type="text/css">
	.st0{fill:#020202;}
</style>
<path class="st0" d="M28.6,23.9c-0.9,0-1.7-0.1-2.5-0.3c-0.8-0.2-1.6-0.4-2.4-0.7c-0.8-0.3-1.5-0.7-2.2-1.2s-1.3-1-1.9-1.5
	c-0.6-0.6-1.1-1.2-1.5-1.9c-0.5-0.7-0.9-1.4-1.2-2.2c-0.3-0.8-0.6-1.6-0.7-2.4c-0.2-0.8-0.3-1.7-0.3-2.6s0.1-1.7,0.3-2.6
	c0.2-0.8,0.4-1.6,0.7-2.4c0.3-0.8,0.7-1.5,1.2-2.2c0.1-0.1,0.2-0.3,0.3-0.4c-1.9-2-4.7-3.2-7.7-3.2C4.8,0.5,0,5.3,0,11.2
	c0,10.6,19.7,21.4,19.7,21.4s7.2-3.9,12.9-9.4c-0.5,0.1-0.9,0.3-1.4,0.4C30.3,23.8,29.5,23.9,28.6,23.9z M43.9,28.1L39.4,22
	c-0.2-0.3-0.6-0.4-0.9-0.2l-2-2.8c3.9-3.8,4.6-10,1.3-14.5c-3.6-4.9-10.5-6-15.4-2.4s-6,10.5-2.4,15.4c3.3,4.5,9.4,5.8,14.2,3.2
	l2,2.8c-0.2,0.2-0.3,0.6-0.1,0.9l4.5,6.1c0.2,0.3,0.7,0.4,1,0.1l2.2-1.6C44,28.8,44.1,28.4,43.9,28.1z M34.2,18.4
	c-1,0.7-2.1,1.2-3.3,1.5c-0.6,0.1-1.1,0.2-1.7,0.2s-1.2,0-1.7-0.1c-0.6-0.1-1.1-0.2-1.7-0.4c-0.5-0.2-1.1-0.5-1.6-0.7
	c-1-0.6-1.9-1.4-2.6-2.4s-1.2-2.1-1.5-3.3c-0.1-0.6-0.2-1.1-0.2-1.7s0-1.2,0.1-1.7c0.1-0.6,0.2-1.1,0.4-1.7c0.2-0.5,0.4-1.1,0.7-1.6
	c0.6-1,1.4-1.9,2.4-2.6s2.1-1.2,3.3-1.5c0.6-0.1,1.1-0.2,1.7-0.2s1.2,0,1.7,0.1c0.6,0.1,1.1,0.2,1.7,0.4c0.5,0.2,1.1,0.4,1.6,0.7
	c1,0.6,1.9,1.4,2.6,2.4c0.7,1,1.2,2.1,1.5,3.2c0.1,0.6,0.2,1.1,0.2,1.7s0,1.2-0.1,1.7c-0.1,0.6-0.2,1.1-0.4,1.7
	c-0.2,0.5-0.4,1.1-0.7,1.6C36,16.8,35.2,17.7,34.2,18.4z M29,3.9c-1,0-1.9,0.2-2.8,0.6c-0.9,0.4-1.6,0.9-2.3,1.5
	c-0.7,0.7-1.2,1.4-1.5,2.3c-0.4,0.9-0.6,1.8-0.6,2.8c0,0,0,0.8,0.8,0.8s0.8-0.8,0.8-0.8c0-3.1,2.5-5.7,5.7-5.7c0,0,0.9,0,0.9-0.7
	C29.9,3.9,29,3.9,29,3.9z"/>
</svg>
