<?xml version="1.0" encoding="utf-8"?>
<!-- Generator: Adobe Illustrator 21.1.0, SVG Export Plug-In . SVG Version: 6.00 Build 0)  -->
<svg version="1.1" id="Layer_1" xmlns="http://www.w3.org/2000/svg" xmlns:xlink="http://www.w3.org/1999/xlink" x="0px" y="0px"
	 viewBox="0 0 44 36" style="enable-background:new 0 0 44 36;" xml:space="preserve">
<path d="M22.2,24.6c-0.1,0.1-0.4,0.1-0.5,0l-0.3-0.3l-2.5-2.6l-7-7.1c-0.1-0.1-0.1-0.4,0-0.5l2.8-2.8c0.1-0.1,0.4-0.1,0.5,0l6.8,6.8
	L38.4,1.9C36.6,0.7,34.4,0,32,0c-4.2,0-7.9,2.1-10,5.4C19.9,2.1,16.2,0,12,0C5.4,0,0,5.4,0,12c0,11.9,22,24,22,24s22-12,22-24
	c0-2.5-0.8-4.9-2.2-6.9L22.2,24.6z"/>
</svg>
