<?xml version="1.0" encoding="utf-8"?>
<!-- Generator: Adobe Illustrator 21.1.0, SVG Export Plug-In . SVG Version: 6.00 Build 0)  -->
<svg version="1.1" id="Layer_1" xmlns="http://www.w3.org/2000/svg" xmlns:xlink="http://www.w3.org/1999/xlink" x="0px" y="0px"
	 viewBox="0 0 38.4 38.4" style="enable-background:new 0 0 38.4 38.4;" xml:space="preserve">
<path d="M19.2,38.4C8.6,38.4,0,29.8,0,19.2C0,8.6,8.6,0,19.2,0s19.2,8.6,19.2,19.2S29.8,38.4,19.2,38.4z M19.2,1.8
	C9.6,1.8,1.8,9.6,1.8,19.2s7.8,17.4,17.4,17.4s17.4-7.8,17.4-17.4S28.8,1.8,19.2,1.8z M21,26.5v-7.3c0-1-0.8-1.8-1.8-1.8
	s-1.8,0.8-1.8,1.8v7.3c0,1,0.8,1.8,1.8,1.8S21,27.5,21,26.5z M19.2,10.1c-1,0-1.8,0.8-1.8,1.8s0.8,1.8,1.8,1.8s1.8-0.8,1.8-1.8
	S20.2,10.1,19.2,10.1z"/>
</svg>
