<?xml version="1.0" encoding="utf-8"?>
<!-- Generator: Adobe Illustrator 21.1.0, SVG Export Plug-In . SVG Version: 6.00 Build 0)  -->
<svg version="1.1" id="Layer_1" xmlns="http://www.w3.org/2000/svg" xmlns:xlink="http://www.w3.org/1999/xlink" x="0px" y="0px"
	 viewBox="0 0 44 44" enable-background="new 0 0 44 44" xml:space="preserve">
<path d="M22,0c-6,0-6.7,0-9.1,0.1c-2.3,0.1-3.9,0.5-5.3,1C6.1,1.7,4.9,2.5,3.7,3.7c-1.2,1.2-2,2.4-2.5,3.9c-0.5,1.4-0.9,3-1,5.3
	C0,15.3,0,16,0,22s0,6.7,0.1,9.1c0.1,2.3,0.5,3.9,1,5.3c0.6,1.4,1.3,2.7,2.5,3.9c1.2,1.2,2.4,2,3.9,2.5c1.4,0.5,3,0.9,5.3,1
	C15.3,44,16,44,22,44s6.7,0,9.1-0.1c2.3-0.1,3.9-0.5,5.3-1c1.4-0.6,2.7-1.3,3.9-2.5c1.2-1.2,2-2.4,2.5-3.9c0.5-1.4,0.9-3,1-5.3
	C44,28.7,44,28,44,22s0-6.7-0.1-9.1c-0.1-2.3-0.5-3.9-1-5.3c-0.6-1.4-1.3-2.7-2.5-3.9c-1.2-1.2-2.4-2-3.9-2.5c-1.4-0.5-3-0.9-5.3-1
	C28.7,0,28,0,22,0z M22,4c5.9,0,6.6,0,8.9,0.1C33,4.2,34.2,4.5,35,4.9c1,0.4,1.8,0.9,2.5,1.6C38.3,7.3,38.8,8,39.1,9
	c0.3,0.8,0.7,1.9,0.8,4.1c0.1,2.3,0.1,3,0.1,8.9s0,6.6-0.1,8.9c-0.1,2.1-0.5,3.3-0.8,4.1c-0.4,1-0.9,1.8-1.7,2.5
	c-0.8,0.8-1.5,1.2-2.5,1.6c-0.8,0.3-2,0.7-4.1,0.8c-2.3,0.1-3,0.1-8.9,0.1s-6.6,0-8.9-0.1c-2.1-0.1-3.3-0.5-4.1-0.8
	c-1-0.4-1.8-0.9-2.5-1.7S5.1,36,4.8,34.9c-0.3-0.8-0.7-2-0.8-4.1c-0.1-2.3-0.1-3-0.1-8.9s0-6.6,0.1-8.9C4.1,10.9,4.5,9.7,4.8,9
	c0.4-1,0.9-1.8,1.7-2.5s1.5-1.3,2.5-1.7C9.7,4.5,10.9,4.1,13,4C15.3,3.9,16,3.9,22,4L22,4z M22,10.7c-6.2,0-11.3,5.1-11.3,11.3
	c0,6.2,5.1,11.3,11.3,11.3c6.2,0,11.3-5.1,11.3-11.3C33.3,15.8,28.2,10.7,22,10.7z M22,29.3c-4.1,0-7.3-3.3-7.3-7.3s3.3-7.3,7.3-7.3
	s7.3,3.3,7.3,7.3S26.1,29.3,22,29.3z M36.4,10.3c0,1.5-1.2,2.6-2.6,2.6c-1.5,0-2.6-1.2-2.6-2.6s1.2-2.6,2.6-2.6
	C35.2,7.6,36.4,8.8,36.4,10.3z"/>
</svg>
