<?xml version="1.0" encoding="utf-8"?>
<!-- Generator: Adobe Illustrator 21.1.0, SVG Export Plug-In . SVG Version: 6.00 Build 0)  -->
<svg version="1.1" id="Layer_1" xmlns="http://www.w3.org/2000/svg" xmlns:xlink="http://www.w3.org/1999/xlink" x="0px" y="0px"
	 viewBox="0 0 38.5 38.3" style="enable-background:new 0 0 38.5 38.3;" xml:space="preserve">
<path d="M23.1,25.6c-3.1,0-6.1-1.4-8.1-4.1c-0.3-0.4-0.2-1,0.2-1.3c0.4-0.3,1-0.2,1.3,0.2c2.7,3.7,7.9,4.4,11.6,1.7
	c0.3-0.2,0.6-0.5,0.9-0.8l5.5-5.5c3.2-3.3,3.1-8.5-0.2-11.7C31.1,1,26,1,22.8,4.1l-3.2,3.1c-0.4,0.4-0.9,0.4-1.3,0s-0.4-0.9,0-1.3
	l3.2-3.1C25.4-1,31.6-1,35.5,2.9c4,3.9,4.1,10.3,0.2,14.3l-5.5,5.5c-0.3,0.3-0.7,0.7-1.1,0.9C27.3,25,25.2,25.6,23.1,25.6z
	 M17.3,35.5l3.1-3.1c0.4-0.4,0.4-0.9,0-1.3s-0.9-0.4-1.3,0L16,34.2c-3.2,3.1-8.3,3.1-11.5,0C1.2,31,1.1,25.8,4.3,22.5L9.8,17
	c0.3-0.3,0.6-0.5,0.9-0.8c1.8-1.3,4-1.9,6.1-1.6c2.2,0.3,4.1,1.5,5.4,3.2c0.3,0.4,0.9,0.5,1.3,0.2s0.5-0.9,0.2-1.3
	c-1.6-2.2-4-3.6-6.7-4s-5.3,0.3-7.5,1.9c-0.4,0.3-0.8,0.6-1.1,0.9L2.9,21C-1,25-0.9,31.4,3.1,35.3c2,1.9,4.5,2.9,7,2.9
	C12.8,38.4,15.4,37.4,17.3,35.5z"/>
</svg>
