<?xml version="1.0" encoding="utf-8"?>
<!-- Generator: Adobe Illustrator 21.1.0, SVG Export Plug-In . SVG Version: 6.00 Build 0)  -->
<svg version="1.1" id="Layer_1" xmlns="http://www.w3.org/2000/svg" xmlns:xlink="http://www.w3.org/1999/xlink" x="0px" y="0px"
	 viewBox="0 0 44 44" enable-background="new 0 0 44 44" xml:space="preserve">
<path d="M37.5,37.5H31V27.3c0-2.4,0-5.6-3.4-5.6c-3.4,0-3.9,2.7-3.9,5.4v10.4h-6.5v-21h6.3v2.9h0.1c0.9-1.6,3-3.4,6.2-3.4
	c6.6,0,7.8,4.3,7.8,10V37.5L37.5,37.5z M9.8,13.6C7.7,13.6,6,11.9,6,9.8c0-2.1,1.7-3.8,3.8-3.8c2.1,0,3.8,1.7,3.8,3.8
	C13.6,11.9,11.9,13.6,9.8,13.6z M13.1,37.5H6.5v-21h6.5C13.1,16.5,13.1,37.5,13.1,37.5z M40.7,0H3.2C1.5,0,0,1.4,0,3.2v37.7
	C0,42.6,1.5,44,3.2,44h37.5c1.8,0,3.3-1.4,3.3-3.2V3.2C44,1.4,42.5,0,40.7,0L40.7,0z"/>
</svg>
