<?xml version="1.0" encoding="utf-8"?>
<!-- Generator: Adobe Illustrator 21.1.0, SVG Export Plug-In . SVG Version: 6.00 Build 0)  -->
<svg version="1.1" id="Layer_1" xmlns="http://www.w3.org/2000/svg" xmlns:xlink="http://www.w3.org/1999/xlink" x="0px" y="0px"
	 viewBox="0 0 34.8 38.5" style="enable-background:new 0 0 34.8 38.5;" xml:space="preserve">
<path d="M30.2,16.5h-2.7v-6.4C27.5,4.5,22.9,0,17.4,0S7.3,4.5,7.3,10.1v6.4H4.6c-2.5,0-4.6,2.1-4.6,4.6v12.8c0,2.5,2.1,4.6,4.6,4.6
	h25.6c2.5,0,4.6-2,4.6-4.6V21C34.8,18.5,32.7,16.5,30.2,16.5z M9.2,10.1c0-4.5,3.7-8.2,8.2-8.2s8.2,3.7,8.2,8.2v6.4H9.2V10.1z
	 M32.9,33.8c0,1.5-1.2,2.7-2.7,2.7H4.6c-1.5,0-2.7-1.2-2.7-2.7V21c0-1.5,1.2-2.7,2.7-2.7h25.6c1.5,0,2.7,1.2,2.7,2.7V33.8z"/>
</svg>
