<?xml version="1.0" encoding="utf-8"?>
<!-- Generator: Adobe Illustrator 15.1.0, SVG Export Plug-In . SVG Version: 6.00 Build 0)  -->
<!DOCTYPE svg PUBLIC "-//W3C//DTD SVG 1.1//EN" "http://www.w3.org/Graphics/SVG/1.1/DTD/svg11.dtd">
<svg version="1.1" id="Layer_1" xmlns="http://www.w3.org/2000/svg" xmlns:xlink="http://www.w3.org/1999/xlink" x="0px" y="0px"
	 width="236.333px" height="44.333px" viewBox="159.167 17.5 236.333 44.333" enable-background="new 159.167 17.5 236.333 44.333"
	 xml:space="preserve">
<g>
	<path fill="#00693F" d="M254.498,30.012v1.396h-0.874c-3.276,0-4.193,1.006-4.193,4.543v17.515c0,3.538,0.916,4.542,4.193,4.542
		h0.874v1.397h-16.16v-1.397h0.873c3.274,0,4.192-1.005,4.192-4.542v-19h-0.087L231.61,59.406h-1.354l-11.75-24.501h-0.086v18.562
		c0,3.538,0.916,4.542,4.193,4.542h0.609v1.397h-11.747v-1.397h0.609c3.233,0,4.148-1.005,4.148-4.542V35.952
		c0-3.536-0.915-4.543-4.148-4.543h-0.655v-1.396h11.354l10.178,21.36l10.09-21.36H254.498"/>
	<path fill="#00693F" d="M266.905,48.184c-3.843,1.308-3.581,1.178-4.848,1.965c-0.611,0.394-1.092,0.873-1.44,1.442
		c-0.263,0.479-0.393,1.005-0.393,1.57c0,1.835,1.266,3.319,2.795,3.319c1.092,0,3.012-1.005,4.149-2.098v-6.289L266.905,48.184
		 M276.254,56.396c-0.481,0.786-1.354,1.789-2.23,2.49c-1.046,0.872-2.313,1.353-3.537,1.353c-1.966,0-3.318-1.312-3.318-3.188
		v-0.48c-1.138,1.091-2.884,2.27-4.5,3.058c-0.873,0.436-1.66,0.611-2.49,0.611c-3.014,0-4.936-2.184-4.936-5.548
		c0-1.44,0.611-2.883,1.572-3.846c1.267-1.222,2.926-2.095,6.07-3.185l3.933-1.313l0.35-0.129v-2.755
		c0-2.313-0.83-3.186-3.102-3.186c-1.922,0-3.059,0.785-3.059,2.182c0,0.044,0,0.263,0.047,0.611v0.219
		c0,1.485-0.876,2.402-2.273,2.402c-1.354,0-2.271-0.917-2.271-2.271c0-2.883,3.319-4.892,7.993-4.892
		c2.709,0,4.937,0.568,6.334,1.659c1.048,0.874,1.527,1.922,1.57,3.713v10.352c0,1.484,0.046,1.66,0.133,2.009
		c0.042,0.176,0.131,0.351,0.306,0.48c0.131,0.133,0.305,0.174,0.523,0.174c0.611,0,1.398-0.566,2.185-1.528L276.254,56.396z"/>
	<path fill="#00693F" d="M284.764,41.543c2.27-2.01,4.629-3.014,6.943-3.014c2.578,0,4.807,1.353,5.547,3.405
		c0.439,1.18,0.568,2.577,0.568,5.504v7.426c0,2.488,0.523,3.145,2.445,3.145h0.393v1.396h-10.787v-1.396h0.219
		c1.965,0,2.49-0.656,2.49-3.145v-7.075c0-3.057-0.131-3.8-0.656-4.63c-0.523-0.744-1.396-1.18-2.314-1.18
		c-1.617,0-3.275,0.655-4.848,1.922v10.963c0,2.488,0.525,3.145,2.447,3.145h0.697v1.396H276.77v-1.396h0.264
		c1.92,0,2.445-0.656,2.445-3.145v-8.955c0-1.877-0.088-2.709-0.35-3.362c-0.307-0.655-0.875-1.004-1.616-1.004
		c-0.22,0-0.437,0-0.786,0.086v-1.571l6.203-1.53h1.834V41.543"/>
	<path fill="#00693F" d="M321.365,53.029l0.045,1.835c0.045,1.442,0.48,2.053,1.529,2.053c0.262,0,0.828-0.131,1.313-0.261v1.483
		l-6.422,2.097h-1.748v-3.056c-2.229,1.964-4.719,3.056-6.99,3.056c-2.795,0-5.154-1.79-5.721-4.28
		c-0.305-1.267-0.35-1.834-0.35-4.979v-7.076c0-2.272-0.523-3.101-2.096-3.101v-1.399h7.383v12.32c0,2.793,0.219,3.58,1.094,4.322
		c0.52,0.479,1.264,0.741,2.096,0.741c1.002,0,1.746-0.218,3.012-0.917c0.832-0.436,1.049-0.566,1.572-1.004V43.901
		c0-2.445-0.523-3.101-2.445-3.101h-0.916v-1.399h8.646v13.628"/>
	<path fill="#00693F" d="M332.506,54.864c0,2.401,0.525,3.145,2.316,3.145h0.131v1.397h-10.309v-1.397h0.131
		c1.967,0,2.447-0.656,2.447-3.145V36.738c0-2.271-0.045-3.057-0.262-3.67c-0.221-0.653-0.877-1.091-1.619-1.091h-0.391
		c-0.045,0-0.133,0-0.262,0.045l-0.264-1.443l6.289-1.091h1.791V54.864"/>
	<path fill="#00693F" d="M341.68,35.777c-1.744,0-3.143-1.397-3.143-3.143c0-1.748,1.398-3.146,3.143-3.146
		c1.748,0,3.146,1.399,3.146,3.146C344.826,34.38,343.385,35.777,341.68,35.777 M335.74,59.406v-1.397h0.699
		c1.922,0,2.447-0.656,2.447-3.145v-9.129c0-1.922-0.09-2.752-0.352-3.362c-0.305-0.699-0.873-1.05-1.617-1.05
		c-0.348,0-0.566,0.047-0.914,0.178l-0.35-1.442l6.682-1.529h1.834v16.336c0,2.489,0.525,3.145,2.445,3.145h0.438v1.397
		L335.74,59.406L335.74,59.406z"/>
	<path fill="#00693F" d="M348.104,59.406v-1.397h0.873c1.924,0,2.447-0.656,2.447-3.145V41.893h-3.32v-2.491h3.32v-0.653
		c0-5.373,4.105-9.261,9.738-9.261c2.84,0,4.717,1.269,4.717,3.233c0,1.441-1.004,2.446-2.576,2.446c-0.83,0-1.57-0.48-2.271-1.529
		l-0.438-0.611c-0.521-0.83-1.006-1.137-1.748-1.137c-1.002,0-1.746,0.699-1.963,1.792c-0.176,0.655-0.219,1.309-0.219,2.796v2.924
		h3.885v2.491h-3.885v12.972c0,2.49,0.521,3.145,2.49,3.145h1.395v1.397H348.104"/>
	<path fill="#00693F" d="M373.908,45.475v-0.35c0-2.84-1.354-4.676-3.406-4.676c-2.361,0-3.975,1.924-4.236,5.025H373.908
		 M379.893,52.595c-0.438,1.656-1.615,3.623-3.189,5.153c-1.615,1.616-3.711,2.49-5.984,2.49c-5.371,0-9.17-4.501-9.17-10.92
		c0-6.466,3.842-10.789,9.564-10.789c5.154,0,8.516,3.451,8.516,8.691v0.48h-13.32c0.305,4.675,3.014,7.906,6.637,7.906
		c2.404,0,4.631-1.397,5.898-3.624L379.893,52.595z"/>
	<rect x="160.899" y="19.762" fill="#00693F" width="39.663" height="39.699"/>
	<polyline fill="#FFFFFF" points="196.077,28.013 190.145,33.778 190.145,57.184 196.077,51.419 196.077,28.013 	"/>
	<polyline fill="#FFFFFF" points="186.282,28.084 180.352,33.848 180.352,57.254 186.282,51.49 186.282,28.084 	"/>
	<polyline fill="#FFFFFF" points="176.538,28.094 170.605,33.859 170.605,57.264 176.538,51.502 176.538,28.094 	"/>
	<g>
		<path fill="#00693F" d="M383.879,59.405v-5.629h-2.104v-0.754h5.061v0.754h-2.111v5.629H383.879z"/>
		<path fill="#00693F" d="M387.678,59.405v-6.383h1.27l1.512,4.521c0.139,0.42,0.24,0.735,0.305,0.943
			c0.072-0.23,0.186-0.572,0.34-1.022l1.529-4.441h1.135v6.383h-0.813v-5.343l-1.855,5.343h-0.764l-1.846-5.434v5.434H387.678z"/>
	</g>
</g>
</svg>
