<?xml version="1.0" encoding="utf-8"?>
<!-- Generator: Adobe Illustrator 21.1.0, SVG Export Plug-In . SVG Version: 6.00 Build 0)  -->
<svg version="1.1" id="Layer_1" xmlns="http://www.w3.org/2000/svg" xmlns:xlink="http://www.w3.org/1999/xlink" x="0px" y="0px"
	 viewBox="0 0 44 8.8" style="enable-background:new 0 0 44 8.8;" xml:space="preserve">
<path d="M22,0c2.4,0,4.4,2,4.4,4.4s-2,4.4-4.4,4.4s-4.4-2-4.4-4.4S19.6,0,22,0z M39.6,0C42,0,44,2,44,4.4s-2,4.4-4.4,4.4
	s-4.4-2-4.4-4.4S37.2,0,39.6,0z M4.4,0c2.4,0,4.4,2,4.4,4.4s-2,4.4-4.4,4.4S0,6.8,0,4.4S2,0,4.4,0z"/>
</svg>
