<?xml version="1.0" encoding="utf-8"?>
<!-- Generator: Adobe Illustrator 21.1.0, SVG Export Plug-In . SVG Version: 6.00 Build 0)  -->
<svg version="1.1" id="Layer_1" xmlns="http://www.w3.org/2000/svg" xmlns:xlink="http://www.w3.org/1999/xlink" x="0px" y="0px"
	 viewBox="0 0 281.8 50.7" enable-background="new 0 0 281.8 50.7" xml:space="preserve">
<path fill="#020202" d="M25.3,0C11.4,0,0,11.4,0,25.3s11.4,25.3,25.3,25.3s25.3-11.4,25.3-25.3S39.3,0,25.3,0z M38.9,37.3h-6.1V18.9
	l-4.7,18.4h-5.5l-4.7-18.4v18.4h-6.2V13.1h9.9l3.8,14.7l3.8-14.7h9.9V37.3z M73.8,30.2H60.3c0.1,1.1,0.5,1.9,0.8,2.5
	c0.7,0.8,1.5,1.2,2.6,1.2c0.7,0,1.3-0.1,1.9-0.5c0.4-0.2,0.7-0.6,1.2-1.2l6.6,0.6c-1.1,1.8-2.2,3.1-3.6,3.9
	c-1.4,0.8-3.5,1.2-6.1,1.2c-2.3,0-4.1-0.4-5.5-0.9c-1.3-0.7-2.5-1.6-3.3-3.2s-1.3-3.1-1.3-5c0-2.7,0.8-4.9,2.6-6.7
	c1.8-1.6,4.2-2.6,7.3-2.6c2.5,0,4.5,0.4,6,1.2c1.4,0.7,2.6,1.9,3.3,3.3c0.7,1.4,1.2,3.3,1.2,5.6V30.2z M67,27
	c-0.1-1.3-0.5-2.2-1.1-2.8c-0.6-0.6-1.3-0.8-2.2-0.8c-1.1,0-1.9,0.5-2.6,1.3c-0.4,0.6-0.7,1.3-0.8,2.3H67z M95.3,13.1v24.2h-6.3
	v-2.6c-0.8,1.1-1.6,1.9-2.3,2.2c-0.9,0.5-2.1,0.8-3.3,0.8c-2.3,0-4.2-0.9-5.5-2.7c-1.3-1.9-1.9-4-1.9-6.7c0-2.9,0.7-5.2,2.1-6.7
	c1.4-1.5,3.2-2.3,5.3-2.3c1.1,0,2,0.2,2.8,0.5c0.8,0.4,1.6,0.8,2.2,1.5V13h6.9L95.3,13.1L95.3,13.1z M88.6,28.5
	c0-1.4-0.2-2.5-0.8-3.1c-0.6-0.7-1.3-1.1-2.2-1.1c-0.8,0-1.4,0.4-2,0.9c-0.5,0.7-0.8,1.8-0.8,3.3c0,1.4,0.2,2.5,0.8,3.2
	c0.6,0.7,1.2,1.1,2,1.1c0.8,0,1.5-0.4,2.1-1.1C88.2,31.1,88.6,30,88.6,28.5z M99.6,13.1h6.7v4.6h-6.7V13.1z M99.6,19.8h6.7v17.5
	h-6.7V19.8z M111.1,37.3V13.1h12.4c2.3,0,4.1,0.2,5.3,0.6c1.2,0.4,2.2,1.2,2.9,2.2c0.7,1.1,1.2,2.3,1.2,3.9c0,1.3-0.2,2.5-0.8,3.5
	c-0.6,0.9-1.4,1.8-2.3,2.3c-0.6,0.4-1.5,0.7-2.6,0.9c0.9,0.4,1.5,0.6,2,0.9c0.2,0.2,0.7,0.6,1.2,1.3s0.8,1.2,1.1,1.5l3.6,6.9h-8.4
	l-4-7.4c-0.5-0.9-0.9-1.5-1.4-1.9c-0.6-0.4-1.2-0.6-1.9-0.6h-0.7v9.9C118.6,37.3,111.1,37.3,111.1,37.3z M118.6,23h3.2
	c0.4,0,1.1-0.1,2-0.4c0.5-0.1,0.9-0.4,1.2-0.7c0.4-0.4,0.5-0.8,0.5-1.4c0-0.8-0.2-1.4-0.7-1.8c-0.5-0.5-1.4-0.6-2.8-0.6h-3.3
	C118.6,18.2,118.6,23,118.6,23z M155.4,30.2H142c0.1,1.1,0.5,1.9,0.8,2.5c0.7,0.8,1.5,1.2,2.6,1.2c0.7,0,1.3-0.1,1.9-0.5
	c0.4-0.2,0.7-0.6,1.2-1.2l6.6,0.6c-1.1,1.8-2.2,3.1-3.6,3.9c-1.4,0.8-3.5,1.2-6.1,1.2c-2.3,0-4.1-0.4-5.5-0.9
	c-1.3-0.7-2.5-1.6-3.3-3.2c-0.8-1.4-1.3-3.1-1.3-5c0-2.7,0.8-4.9,2.6-6.7c1.8-1.6,4.2-2.6,7.3-2.6c2.5,0,4.5,0.4,6,1.2
	c1.4,0.7,2.6,1.9,3.3,3.3c0.7,1.4,1.2,3.3,1.2,5.6L155.4,30.2L155.4,30.2z M148.6,27c-0.1-1.3-0.5-2.2-1.1-2.8
	c-0.6-0.6-1.3-0.8-2.2-0.8c-1.1,0-1.9,0.5-2.6,1.3c-0.4,0.6-0.7,1.3-0.8,2.3H148.6z M157.3,32.5l6.7-0.6c0.2,0.8,0.7,1.3,1.2,1.6
	s1.2,0.5,2,0.5c0.9,0,1.6-0.2,2.1-0.6c0.4-0.2,0.6-0.6,0.6-1.1c0-0.5-0.2-0.8-0.7-1.2c-0.4-0.2-1.3-0.5-2.9-0.7
	c-2.3-0.4-4-0.8-4.8-1.2c-0.9-0.4-1.6-0.9-2.3-1.8c-0.6-0.8-0.9-1.8-0.9-2.8c0-1.2,0.4-2.1,1.1-2.9c0.7-0.8,1.6-1.4,2.8-1.9
	c1.2-0.5,2.7-0.6,4.7-0.6c2.1,0,3.6,0.1,4.6,0.5c0.9,0.4,1.9,0.8,2.5,1.5c0.7,0.7,1.2,1.5,1.6,2.7l-6.5,0.6
	c-0.1-0.6-0.5-0.9-0.8-1.3c-0.5-0.4-1.2-0.6-1.9-0.6s-1.3,0.1-1.6,0.4c-0.4,0.2-0.5,0.6-0.5,0.9c0,0.5,0.2,0.7,0.7,0.9
	c0.5,0.2,1.4,0.5,2.8,0.6c2.2,0.2,3.9,0.6,4.9,1.1s1.9,1.1,2.5,1.9c0.6,0.8,0.8,1.8,0.8,2.8s-0.4,2-0.9,2.9s-1.5,1.8-2.9,2.3
	c-1.3,0.6-3.1,0.8-5.4,0.8c-3.2,0-5.5-0.5-6.8-1.4C158.6,35.4,157.7,34.1,157.3,32.5z M178.3,28.6c0-2.7,0.9-4.9,2.7-6.6
	c1.8-1.8,4.2-2.6,7.3-2.6c3.5,0,6.1,1.1,8,3.1c1.4,1.6,2.1,3.6,2.1,6.1c0,2.7-0.9,4.9-2.7,6.7c-1.8,1.8-4.2,2.6-7.4,2.6
	c-2.8,0-5-0.7-6.8-2.1C179.4,33.8,178.3,31.4,178.3,28.6z M185.1,28.6c0,1.5,0.4,2.7,0.9,3.5c0.6,0.7,1.4,1.2,2.3,1.2
	s1.8-0.4,2.3-1.1c0.6-0.7,0.9-1.9,0.9-3.5c0-1.5-0.4-2.7-0.9-3.4c-0.6-0.7-1.4-1.2-2.3-1.2s-1.8,0.4-2.5,1.2
	C185.4,25.9,185.1,27.1,185.1,28.6z M220.2,37.3H214v-2.8c-0.9,1.2-1.9,2-2.8,2.5c-0.9,0.5-2.1,0.7-3.5,0.7c-1.9,0-3.3-0.6-4.3-1.6
	s-1.5-2.8-1.5-5.2V19.7h6.8v9.6c0,1.1,0.2,1.9,0.6,2.3c0.4,0.5,0.9,0.7,1.8,0.7s1.5-0.4,2-0.9c0.5-0.6,0.8-1.8,0.8-3.3v-8.4h6.7
	v17.6C220.4,37.3,220.2,37.3,220.2,37.3z M224.3,19.8h6.3v2.8c0.6-1.3,1.2-2.1,1.9-2.6c0.6-0.5,1.4-0.7,2.3-0.7
	c0.9,0,2.1,0.4,3.3,0.9l-2.1,4.8c-0.8-0.4-1.4-0.5-1.9-0.5c-0.9,0-1.5,0.4-2,1.1c-0.7,1.1-1.1,2.9-1.1,5.7v5.9h-6.8V19.8z
	 M252.8,30.5l6.3,0.7c-0.4,1.3-0.9,2.5-1.8,3.5c-0.8,0.9-1.9,1.8-3.1,2.2c-1.3,0.6-2.8,0.8-4.8,0.8c-1.9,0-3.4-0.1-4.7-0.5
	c-1.3-0.4-2.3-0.9-3.2-1.6c-0.9-0.8-1.6-1.6-2.1-2.7c-0.5-1.1-0.7-2.5-0.7-4.1c0-1.8,0.4-3.3,0.9-4.5c0.5-0.9,1.1-1.6,1.9-2.3
	c0.8-0.7,1.6-1.2,2.5-1.5c1.3-0.6,2.9-0.8,5-0.8c2.8,0,5,0.5,6.6,1.5c1.5,1.1,2.6,2.5,3.2,4.5l-6.3,0.8c-0.2-0.7-0.6-1.3-1.1-1.6
	c-0.5-0.4-1.2-0.6-2.1-0.6c-1.1,0-2,0.4-2.7,1.2c-0.7,0.8-1.1,2-1.1,3.6c0,1.4,0.4,2.6,1.1,3.3c0.7,0.7,1.5,1.2,2.6,1.2
	c0.9,0,1.6-0.2,2.2-0.7C252.1,32,252.6,31.4,252.8,30.5z M281.8,30.2h-13.5c0.1,1.1,0.5,1.9,0.8,2.5c0.7,0.8,1.5,1.2,2.6,1.2
	c0.7,0,1.3-0.1,1.9-0.5c0.4-0.2,0.7-0.6,1.2-1.2l6.6,0.6c-1.1,1.8-2.2,3.1-3.6,3.9c-1.4,0.8-3.5,1.2-6.1,1.2c-2.3,0-4.1-0.4-5.5-0.9
	c-1.3-0.7-2.5-1.6-3.3-3.2s-1.3-3.1-1.3-5c0-2.7,0.8-4.9,2.6-6.7c1.8-1.6,4.2-2.6,7.3-2.6c2.5,0,4.5,0.4,6,1.2
	c1.4,0.7,2.6,1.9,3.3,3.3c0.7,1.4,1.2,3.3,1.2,5.6V30.2z M275,27c-0.1-1.3-0.5-2.2-1.1-2.8c-0.6-0.6-1.3-0.8-2.2-0.8
	c-1.1,0-1.9,0.5-2.6,1.3c-0.4,0.6-0.7,1.3-0.8,2.3H275z"/>
</svg>
