<?xml version="1.0" encoding="utf-8"?>
<!-- Generator: Adobe Illustrator 21.1.0, SVG Export Plug-In . SVG Version: 6.00 Build 0)  -->
<svg version="1.1" id="Layer_1" xmlns="http://www.w3.org/2000/svg" xmlns:xlink="http://www.w3.org/1999/xlink" x="0px" y="0px"
	 viewBox="0 0 34.8 38.4" style="enable-background:new 0 0 34.8 38.4;" xml:space="preserve">
<path d="M17.4,38.4c-4.5,0-8.9-1.7-12.3-5.1c-6.8-6.8-6.8-17.8,0-24.6c0.4-0.4,0.9-0.4,1.3,0c0.4,0.4,0.4,0.9,0,1.3
	c-6.1,6.1-6.1,16,0,22c6.1,6.1,15.9,6.1,22,0s6.1-15.9,0-22c-0.4-0.4-0.4-0.9,0-1.3c0.4-0.4,0.9-0.4,1.3,0c6.8,6.8,6.8,17.8,0,24.6
	C26.3,36.7,21.8,38.4,17.4,38.4z M18.3,19.2V0.9c0-0.5-0.4-0.9-0.9-0.9s-0.9,0.4-0.9,0.9v18.3c0,0.5,0.4,0.9,0.9,0.9
	S18.3,19.7,18.3,19.2z"/>
</svg>
