<?xml version="1.0" encoding="utf-8"?>
<!-- Generator: Adobe Illustrator 21.1.0, SVG Export Plug-In . SVG Version: 6.00 Build 0)  -->
<svg version="1.1" id="Layer_1" xmlns="http://www.w3.org/2000/svg" xmlns:xlink="http://www.w3.org/1999/xlink" x="0px" y="0px"
	 viewBox="0 0 38.4 38.4" style="enable-background:new 0 0 38.4 38.4;" xml:space="preserve">
<path d="M33.8,12.8h-2.7V0.9c0-0.5-0.4-0.9-0.9-0.9h-22C7.7,0,7.3,0.4,7.3,0.9v11.9H4.6c-2.5,0-4.6,2.1-4.6,4.6v9.1
	c0,2.5,2.1,4.6,4.6,4.6h2.7v6.4c0,0.5,0.4,0.9,0.9,0.9h22c0.5,0,0.9-0.4,0.9-0.9v-6.4h2.7c2.5,0,4.6-2.1,4.6-4.6v-9.1
	C38.4,14.9,36.4,12.8,33.8,12.8z M9.1,1.8h20.1v11H9.1V1.8z M29.3,36.6H9.1V23.8h20.1L29.3,36.6L29.3,36.6z M36.6,26.5
	c0,1.5-1.2,2.7-2.7,2.7h-2.7v-6.4c0-0.5-0.4-0.9-0.9-0.9H8.2c-0.5,0-0.9,0.4-0.9,0.9v6.4H4.6c-1.5,0-2.7-1.2-2.7-2.7v-9.1
	c0-1.5,1.2-2.7,2.7-2.7h29.3c1.5,0,2.7,1.2,2.7,2.7C36.6,17.4,36.6,26.5,36.6,26.5z"/>
</svg>
