<?xml version="1.0" encoding="utf-8"?>
<!-- Generator: Adobe Illustrator 21.1.0, SVG Export Plug-In . SVG Version: 6.00 Build 0)  -->
<svg version="1.1" id="Layer_1" xmlns="http://www.w3.org/2000/svg" xmlns:xlink="http://www.w3.org/1999/xlink" x="0px" y="0px"
	 viewBox="0 0 38.4 38.4" style="enable-background:new 0 0 38.4 38.4;" xml:space="preserve">
<path d="M19.2,25.1c-3.2,0-5.8-2.6-5.8-5.8s2.6-5.8,5.8-5.8s5.8,2.6,5.8,5.8S22.4,25.1,19.2,25.1z M19.2,15c-2.3,0-4.2,1.9-4.2,4.2
	s1.9,4.2,4.2,4.2s4.2-1.9,4.2-4.2S21.5,15,19.2,15z M19.3,38.4c-2.3,0-4.2-1.9-4.2-4.2c0-0.9-0.5-1.6-1.3-1.9
	c-0.8-0.3-1.6-0.2-2.2,0.4C10,34.3,7.5,34.4,5.9,33l0,0l-0.2-0.2c0,0,0,0-0.1-0.1l-0.1-0.1c-0.7-0.8-1.1-1.8-1.1-2.9s0.4-2.2,1.2-3
	c0.6-0.7,0.8-1.5,0.5-2.2s-1-1.2-1.8-1.2H4.2c-2.3,0-4.2-1.9-4.2-4.2s1.9-4.2,4.2-4.2c0.9,0,1.6-0.5,1.9-1.3
	c0.3-0.8,0.2-1.6-0.4-2.2C4,9.7,4,7,5.6,5.4s4.3-1.6,5.9,0c0.7,0.7,1.5,0.8,2.2,0.5L14,5.8c0.6-0.3,1-1,1-1.7v0.1
	C15,1.9,16.9,0,19.2,0s4.2,1.9,4.2,4.2c0,0.9,0.5,1.6,1.2,1.9s1.6,0.2,2.1-0.4c0.9-0.9,1.9-1.3,3-1.3l0,0c1.1,0,2.1,0.4,2.8,1.1
	l0.3,0.2v0.2c1.4,1.6,1.3,4.1-0.2,5.6c-0.6,0.7-0.8,1.5-0.5,2.2l0.1,0.3c0.3,0.6,1,1,1.7,1h0.3c2.3,0,4.2,1.9,4.2,4.2
	s-1.9,4.2-4.2,4.2c-0.9,0-1.6,0.5-1.9,1.2l0,0c-0.3,0.7-0.2,1.6,0.4,2.1c1.7,1.7,1.7,4.4,0.1,6c-1.6,1.6-4.3,1.6-5.9,0
	c-0.7-0.6-1.5-0.8-2.2-0.5s-1.2,1-1.2,1.8v0.3C23.5,36.5,21.6,38.4,19.3,38.4z M13.1,30.5c0.5,0,1,0.1,1.4,0.3
	c1.3,0.5,2.3,1.8,2.3,3.3v0.2c0,1.4,1.1,2.5,2.5,2.5s2.5-1.1,2.5-2.5V34c0-1.4,0.9-2.7,2.2-3.3c1.3-0.6,2.9-0.3,4,0.7
	c1.1,1.1,2.7,1.1,3.7,0.1c1-1,1-2.6,0-3.5c-1.1-1.2-1.4-2.7-0.8-4.1c0.6-1.3,1.9-2.2,3.3-2.2c1.5,0,2.7-1.1,2.7-2.5
	s-1.1-2.5-2.5-2.5h-0.3c-1.4,0-2.7-0.9-3.3-2.2l-0.1-0.3c-0.5-1.3-0.2-2.8,0.8-3.8c1.1-1.1,1.1-2.6,0.1-3.6l0,0
	c-0.5-0.5-1.1-0.7-1.8-0.7l0,0c-0.7,0-1.3,0.3-1.8,0.7c-1.2,1.1-2.7,1.4-4.1,0.8c-1.3-0.6-2.2-1.9-2.2-3.3c0-1.5-1.1-2.7-2.5-2.7
	s-2.5,1.1-2.5,2.5v0.3c0,1.4-0.9,2.7-2.2,3.3l-0.3,0.1C12.9,8.3,11.4,8,10.4,7C9.3,5.9,7.7,5.9,6.7,6.9s-1,2.6,0,3.5
	c1.1,1.2,1.4,2.7,0.8,4.1c-0.5,1.3-1.8,2.3-3.3,2.3l0,0c-1.4,0-2.5,1.1-2.5,2.5s1.1,2.5,2.5,2.5h0.2c1.4,0,2.7,0.9,3.3,2.2
	C8.3,25.3,8,26.9,7,28c-0.6,0.6-0.8,1.2-0.8,1.9c0,0.6,0.2,1.1,0.5,1.5h0.1L7,31.7c1,0.9,2.5,0.9,3.5-0.1
	C11.2,30.9,12.2,30.5,13.1,30.5z"/>
</svg>
