<?xml version="1.0" encoding="utf-8"?>
<!-- Generator: Adobe Illustrator 21.1.0, SVG Export Plug-In . SVG Version: 6.00 Build 0)  -->
<svg version="1.1" id="Layer_1" xmlns="http://www.w3.org/2000/svg" xmlns:xlink="http://www.w3.org/1999/xlink" x="0px" y="0px"
	 viewBox="0 0 34.6 38.3" style="enable-background:new 0 0 34.6 38.3;" xml:space="preserve">
<path d="M33.7,7.3h-8.2V4.6c0-2.5-2-4.6-4.6-4.6h-7.3C11.1,0,9,2,9,4.6v2.7H0.9C0.4,7.3,0,7.7,0,8.2c0,0.5,0.4,0.9,0.9,0.9h2.7v24.6
	c0,2.5,2,4.6,4.6,4.6h18.2c2.5,0,4.6-2,4.6-4.6V9.1h2.7c0.5,0,0.9-0.4,0.9-0.9S34.2,7.3,33.7,7.3z M10.9,4.6c0-1.5,1.2-2.7,2.7-2.7
	h7.3c1.5,0,2.7,1.2,2.7,2.7v2.7H10.9V4.6z M29.2,33.7c0,1.5-1.2,2.7-2.7,2.7H8.2c-1.5,0-2.7-1.2-2.7-2.7V9.1h23.7V33.7z"/>
</svg>
