<?xml version="1.0" encoding="utf-8"?>
<!-- Generator: Adobe Illustrator 21.1.0, SVG Export Plug-In . SVG Version: 6.00 Build 0)  -->
<svg version="1.1" id="Layer_1" xmlns="http://www.w3.org/2000/svg" xmlns:xlink="http://www.w3.org/1999/xlink" x="0px" y="0px"
	 viewBox="0 0 43.7 35.4" style="enable-background:new 0 0 43.7 35.4;" xml:space="preserve">
<path d="M43.7,4.2c-1.6,0.7-3.3,1.2-5.1,1.4c1.8-1.1,3.3-2.9,3.9-5c-1.8,1.1-3.7,1.8-5.7,2.2c-1.6-1.7-4-2.8-6.5-2.8
	c-4.9,0-9,4-9,8.9c0,0.7,0.1,1.4,0.2,2C14.1,10.5,7.5,7,3,1.6C2.2,2.9,1.8,4.4,1.8,6.1c0,3.1,1.6,5.8,4,7.5c-1.5,0-2.9-0.5-4.1-1.1
	v0.1c0,4.3,3.1,8,7.2,8.8c-0.8,0.2-1.5,0.3-2.4,0.3c-0.6,0-1.1-0.1-1.7-0.2c1.1,3.6,4.4,6.1,8.4,6.2c-3.1,2.4-6.9,3.8-11.1,3.8
	c-0.7,0-1.4,0-2.1-0.1c4,2.5,8.7,4,13.8,4c16.5,0,25.5-13.6,25.5-25.5c0-0.4,0-0.8,0-1.1C41,7.6,42.6,6,43.7,4.2L43.7,4.2z"/>
</svg>
