<?xml version="1.0" encoding="utf-8"?>
<!-- Generator: Adobe Illustrator 21.1.0, SVG Export Plug-In . SVG Version: 6.00 Build 0)  -->
<svg version="1.1" id="Layer_1" xmlns="http://www.w3.org/2000/svg" xmlns:xlink="http://www.w3.org/1999/xlink" x="0px" y="0px"
	 viewBox="0 0 34.8 38.5" style="enable-background:new 0 0 34.8 38.5;" xml:space="preserve">
<path d="M30.2,16.5h-21v-6.4c0-2.2,0.9-4.3,2.4-5.8c1.6-1.6,3.6-2.4,5.8-2.4l0,0c3.9,0,7.3,2.8,8.1,6.6c0.1,0.5,0.6,0.8,1.1,0.7
	C27,9,27.4,8.5,27.3,8.1c-1-4.7-5.1-8.1-9.9-8.1l0,0c-2.7,0-5.2,1.1-7.1,3s-2.9,4.4-2.9,7.1v6.4H4.6c-2.5,0-4.6,2.1-4.6,4.6v12.8
	c0,2.5,2.1,4.6,4.6,4.6h25.6c2.5,0,4.6-2,4.6-4.6V21C34.8,18.5,32.7,16.5,30.2,16.5z M32.9,33.8c0,1.5-1.2,2.7-2.7,2.7H4.6
	c-1.5,0-2.7-1.2-2.7-2.7V21c0-1.5,1.2-2.7,2.7-2.7h25.6c1.5,0,2.7,1.2,2.7,2.7V33.8z"/>
</svg>
