<?xml version="1.0" encoding="utf-8"?>
<!-- Generator: Adobe Illustrator 21.1.0, SVG Export Plug-In . SVG Version: 6.00 Build 0)  -->
<svg version="1.1" id="Layer_1" xmlns="http://www.w3.org/2000/svg" xmlns:xlink="http://www.w3.org/1999/xlink" x="0px" y="0px"
	 viewBox="0 0 36.3 38.6" style="enable-background:new 0 0 36.3 38.6;" xml:space="preserve">
<path d="M35.3,38.5c-0.6,0-1.1-0.5-1.1-1.1v-4.3c0-4.1-3.4-7.5-7.5-7.5h-17c-4.2,0.1-7.5,3.4-7.5,7.6v4.3c0,0.6-0.5,1.1-1.1,1.1
	S0,38,0,37.4v-4.3c0-5.3,4.3-9.6,9.6-9.6h17.1c5.3,0,9.6,4.3,9.6,9.6v4.3C36.4,38,35.9,38.5,35.3,38.5z M27.8,9.6
	c0-5.3-4.3-9.6-9.6-9.6S8.6,4.3,8.6,9.6s4.3,9.6,9.6,9.6S27.8,14.9,27.8,9.6z M25.7,9.6c0,4.1-3.4,7.5-7.5,7.5s-7.5-3.4-7.5-7.5
	s3.4-7.5,7.5-7.5S25.7,5.5,25.7,9.6z"/>
</svg>
